<svg id="圖層_1" data-name="圖層 1" xmlns="http://www.w3.org/2000/svg" viewBox="0 0 27 27"><defs><style>.cls-1{fill:none;stroke:#f4eded;stroke-miterlimit:10;}.cls-2{fill:#f4eded;}</style></defs><circle class="cls-1" cx="13.5" cy="13.5" r="12.5"/><path class="cls-2" d="M11,12.77A3.35,3.35,0,1,0,7.64,9.42,3.35,3.35,0,0,0,11,12.77ZM12.31,14H9.66a4.53,4.53,0,0,0-4.54,4.53.91.91,0,0,0,.91.91h9.91a.91.91,0,0,0,.91-.91A4.53,4.53,0,0,0,12.31,14Zm5.35.41H15.73a5.33,5.33,0,0,1,2,4.12,1.73,1.73,0,0,1-.26.91H21a.85.85,0,0,0,.84-.86A4.2,4.2,0,0,0,17.66,14.44Zm-1.23-1.67a2.93,2.93,0,0,0,0-5.86,2.83,2.83,0,0,0-1.74.59,4.11,4.11,0,0,1,.49,1.92,4.2,4.2,0,0,1-.83,2.48A2.93,2.93,0,0,0,16.43,12.77Z"/></svg>